/* XPM */
static char *ef8f8318ab57412cda83876cc52196c6CtBRhL6B7QhAv1a1[] = {
/* columns rows colors chars-per-pixel */
"64 64 33 1 ",
"  c #010101",
". c #010302",
"X c #020202",
"o c gray1",
"O c #020403",
"+ c #020305",
"@ c #030504",
"# c #030406",
"$ c #040404",
"% c gray2",
"& c #040605",
"* c #040507",
"= c #070506",
"- c #050706",
"; c #060606",
": c #070707",
"> c #080607",
", c #060807",
"< c #090708",
"1 c #070908",
"2 c gray3",
"3 c #090909",
"4 c #0A0809",
"5 c #080A09",
"6 c #090B0A",
"7 c gray4",
"8 c #0B0B0B",
"9 c #0A0C0B",
"0 c #0B0D0C",
"q c #0C0C0C",
"w c gray5",
"e c #0C0E0D",
"r c #0E0E0E",
/* pixels */
"    $$$$$$$$$$$$$$$2222222$$$2$$>>>>>>>>>>>$$$$$$$$$$$$$$$$$$$$$",
"   $$$$$222222$$$$22222222222$22<<<<<<<<>>>><>>>$$<<22$$22222$$$",
"   $$$$$222222222222222222222222222222222222222222222222222222,$",
"  $$$$2222222222222222222222222222222222222222222222222222222222",
"$$$$$22222222222222222222222222222222222222222222222222222222221",
"$$$2222222222222222222222222222222222222222222222222222222222222",
"$$22222222222222222222222222222222222222222222222222222222222222",
"$$$2222222222222222222222222222222222222222222$$$$22222222222222",
"$$2222222222222$222$$$2222$$$222$$$222222222$$$$$$$$,,,222222222",
"$$22qq222222222$222$$22222$$$$$$$$$122$$2222$$$$$$$$$,$$22222222",
"2222qqq22222222222$$$$2222$$$$$$$$$$$$$$$$$$$$$$$$$$,,,,12222222",
"222qqqq2222222$$$$$$$$$$$$$$$$$$$$$$$$$$$$$$$$$$$$$$$,,,,2222922",
"22qqqq2222222$$$$$$$$$$$$$$$$$$$$$$$$$$$$$$$$$$$$$&&$$$,,1222221",
"222qqq222222$$$$$$$$$$$$$$$$$$$$$$$$$$$$$$$$$$$$$$&&$$$$11122211",
"22qqqq222222$$$$$$$$$$$$$$$$$$$$$$$&&&&&$$$&OO&&$&&&$$$$1112221,",
"22qqq2222222$$$$$$$$$$$$$$$$$$$$$&&&&&&&&$&&&&&&&&&&$$$,1122212,",
"22qqqq2222,$,,,,$$$$&&&&&&$$$$$$&&&&&&&OO&&&&&&&$$$$$$$$>22222<$",
"22qqqq2222,,,,,$$$$$&&&&&&$$$$$$&&OO&&&&&&&&&&&&$$$$$$$$>22222<>",
"22qqqq2222,,$$$$$$$$&&&&&&&$$$$$&&&&&&&&&&&&&&&&$$$$$$$$>22222<>",
"22qqqqqq221,$$$&$$$&&&&&&&&&&$$$&&&&&&&&&&&&OO&&$$$$$$$$$2222<>>",
"222qqqqq221,$$$&$&&&&&&&&&&&&&&&&OO&&&&&&O&&&&&&&&&&$$$$$222222>",
"22qqqqqq221,$$$&&&&&&&&&O&&&&&&&&&&&&&&&&&&&OO&&&&&&$$$$$222222$",
"22qqqq22221,$$$&&&&&&&&&OOO&&&&&&&&&&&&&&&&&&&&&&&&&$$$$2222221$",
"222qqq222211$,$$&&&&&&&&OOOO&&&&&&&&&&&&&&&&&&&&&&&&$$$$2222222$",
"$222qq2222,,,$$&&&&&OOOOOOOOOOOO&&&&&&&&OOOOOOOOO&&&&$$,,22222$$",
"222qqq2222,,$$$&&&&&OOOOOOOOOOOO&&&&&&&&OOOOOOOOO&&&&$$,$22222$$",
"222qqqq222,$$$&&&&&&OOOOOOOOOOOOOOOOOOOOOOOOOOOOO&&&&$$,,12222$$",
"222qqq2222,$$$&&&&&&OOOOOOOOOOOOOOOOOOOOOOOOOOOOO&&&&$$,,12222$$",
"22qqqqq222,$$$&&&&&&OOOOOOOOOOOOOOOOOOOOOOOOOOOOO&&&&$$,,122222$",
"22qqqqq222,$$$&O&&&&OOOOOOOOOOOOOOOOOOOOOOOOOOOOO&&&&$$,,122222$",
"222qqq2222,$$$&O&&&&OOOOOOOOOOOOOOOOOOOOOOOOOOOOO&&&&$$,,12222$$",
"222qqq2222,$$$&O&&&&OOOOOOOOOOOOOOOOOOOOOOOOOOOOO&&&&$$,,12222$$",
"222qqq9911$$$&&&&&OOOOOOOOOOOOOOOOOOOOOOOO+++++++++&&$$$112222$$",
"222qq29911$$$&&&&&OOOOOOOOOOOOOOOOOOOOOOOO+++++++++&&$$$1122222$",
"22qqq2222,$$$&&&&&OOOOOOOOOOOOOOOOOOOOOOOO++++++++++&$$$,1222222",
"222q222911,$$&&&&&OOOOOOOOOOOOOOOOOOOOOOOO++++++++++&&$$,1222222",
"2222229211,$$&&&&&OOOOOOOOOOOOOOOOOOOOOOOO++++++++++&&$$,,,22222",
"2222q29921,$$&&&&&OOOOOOOOOOOOOOOOOOOOOOOO++++++++++&&&$$$$22222",
"$$222q9921,$$&&&&&OOOOOOOOOOOOOOOOOOOOOOOO+++++++++++&&$$$$22222",
"$$222q0921,$$$&&&&OOOOOOOOOOOOOOOOOOOOOOOO+++++++++++&&&$$$22222",
"$$,2222221,,$$&&&&OOOOOO OOOOOOOOOOOOOOOOO++++++++++++&&$,$22222",
"$$,2222221,,$$&&&&OOOOOOOOOOOOOO&&&&&&&&OO++++++++++++&&$,$22222",
"$$$2222221,,$$&&&&OOOOOOOOOOOOOO&&&&&&&&&&&&&&&&+++++&&&$,$22222",
" $$1222221,$$$&&&&OOOOOOOOOOO&&&&&&&&&&&&&&&&&&&+++++&&&$,222222",
" $$$222221,$$$&&&&&OOOO&OOO&&&&&&&&&&&&&&&&&&&+++++++&&$$,222222",
" $$$,22221,$$$&&&&&OOO&&&&&&&&&&&&&&&$$$$&&&&&+++++++&&$,1222222",
"$$$$$22221,$$$&&&&&&OO&&&&&&&&&&&$$$$$$$$$$$++++++++&&$$,,222222",
"$$$$$22921,$$$&&$&&&O&&&&&&&&&&$$$$$$$11$$$$$+++++++&&$$,,222222",
"$$$$$22222$$$$$$$$&&&&&&&&&&&$$$$$,,,,,$,,,$$&&&&&&&&$$$,,122211",
"  $$$22222$$$$$$$$&&&&&&&&&&&$$$$,,111,,,,$$$$&&&&&&&$$$,,122211",
"$ $$$2222222$$$$$&&&&&&&$&&&$$$$,,122222111,,$$&&&&&&&$$,,122211",
"$$$$22222222$$$$&&&&&&&&$$$$$$$,112999922211$$$$&&&&&$$$,1122211",
"$$$$2222222$$$$$$$$$$$$$$$$$$,,,122900002221,$,$$$$&$$$$,,122211",
"$$$222222222$$$$$$$$$$$$,$$,$,112290qqq092221,$,,,$$$$,,,,122211",
" $$222222222$$$$,,,,$$$$$$$,,12222qqqqqq29222222$$$$$$$$,,222222",
"$$$22222q2222$2$$,,,$$$$$$$,,12222qqqqqqqq22222212$$$$$$$$222222",
"$$$2222q22222222,,,,,,,,,,,122992qqqqqqqqq2222221,,$$$$$22222222",
"$$$2222qqq222222111,,,,,,,1129992qqqqqqqqqq222222222222222222222",
"$$$2222q22qq22222222222222222222qqqqqqqqqqqq2222222222222222222$",
"$$$2222q222222222222222222222222qqqqqqqqqqqq222222222222222222$$",
"$$$22222222222222222222222222222222qqq2222qq222222222222222222$$",
"$$$22222222222222222222222222222222222222222222222222222222222$$",
"$$$$$$2222222222222$2$,$22222$$$22222222222222$$$$$$222$$2$$2$$$",
" $$$$$$22222$$22$$$$222$$$$$2$2$$$$$222$$$222$$$$$$$$$$$$$$$$$$$"
};
