/* XPM */
static char *e40f794d3b114d44c46b39cde7b9c8cdULEYV706e2wjtgI7[] = {
/* columns rows colors chars-per-pixel */
"64 64 187 2 ",
"   c #010101",
".  c #0A0401",
"X  c #060901",
"o  c #0C0900",
"O  c #03010A",
"+  c #0B060C",
"@  c #050B0B",
"#  c #120C00",
"$  c #0D1600",
"%  c #141100",
"&  c #1A1300",
"*  c #171800",
"=  c #1C1B00",
"-  c #0A0A14",
";  c #201600",
":  c #281F00",
">  c #252400",
",  c #292300",
"<  c #272900",
"1  c #2E2B00",
"2  c #332C00",
"3  c #343400",
"4  c #3C3600",
"5  c #3D3B00",
"6  c #423D00",
"7  c #3E4000",
"8  c #4A4600",
"9  c #474900",
"0  c #4E4C00",
"q  c #504B00",
"w  c #545200",
"e  c #5B5501",
"r  c #5B5C00",
"t  c #5F6000",
"y  c #646100",
"u  c #6F6700",
"i  c #6B6B00",
"p  c #68670B",
"a  c #6D6A0F",
"s  c #726C00",
"d  c #677100",
"f  c #697400",
"g  c #727200",
"h  c #7C7600",
"j  c #7A7C00",
"k  c #7B710A",
"l  c #7C7C0C",
"z  c #716C11",
"x  c #7D761C",
"c  c #7E7E18",
"v  c #7D7613",
"b  c #807C18",
"n  c #7E8100",
"m  c #848503",
"M  c #8C8E00",
"N  c #928E0A",
"B  c #989200",
"V  c #9B9E0D",
"C  c #8C8B11",
"Z  c #83811C",
"A  c #8B891E",
"S  c #89861B",
"D  c #9B9B19",
"F  c #A39D11",
"G  c #A6AB0B",
"H  c #A4A81F",
"J  c #A4A112",
"K  c #B6B916",
"L  c #B5B718",
"P  c #B4B212",
"I  c #848025",
"U  c #919026",
"Y  c #999B23",
"T  c #9B9A26",
"R  c #A39C27",
"E  c #AEA722",
"W  c #ABAE23",
"Q  c #B1AD27",
"!  c #AEB325",
"~  c #BAB72C",
"^  c #BFBE30",
"/  c #C1BD3F",
"(  c #C0BC34",
")  c #BFC21D",
"_  c #BFC237",
"`  c #C0C21F",
"'  c #C3C91F",
"]  c #E6E501",
"[  c #EBE602",
"{  c #E6EA02",
"}  c #EDEC01",
"|  c #EAE60C",
" . c #ECEB0C",
".. c #E5E209",
"X. c #F3EE02",
"o. c #F8ED02",
"O. c #F2ED0A",
"+. c #EDF101",
"@. c #ECF10D",
"#. c #E3F00D",
"$. c #F2F101",
"%. c #F9F303",
"&. c #F9F800",
"*. c #F3F20A",
"=. c #F9F30C",
"-. c #F5F90E",
";. c #F9F80A",
":. c #F5F906",
">. c #EBE611",
",. c #EBEB13",
"<. c #ECED1B",
"1. c #E5E61C",
"2. c #F2EC12",
"3. c #EEF010",
"4. c #EEF31D",
"5. c #F2F315",
"6. c #F7FD16",
"7. c #F2F21C",
"8. c #F9FB1B",
"9. c #FCF511",
"0. c #C4CA22",
"q. c #D0D12D",
"w. c #C7C43C",
"e. c #CAC73A",
"r. c #CEC83E",
"t. c #D3CF3A",
"y. c #D7D737",
"u. c #D8D532",
"i. c #D4D43B",
"p. c #DBD83E",
"a. c #E0D837",
"s. c #EEE727",
"d. c #EDEE20",
"f. c #EEF221",
"g. c #F2F323",
"h. c #FAF424",
"j. c #F5F821",
"k. c #F9FA22",
"l. c #F4F42C",
"z. c #F9F729",
"x. c #F6FA2C",
"c. c #FAFB2D",
"v. c #E2E63A",
"b. c #E6E93E",
"n. c #E9EB39",
"m. c #EAE434",
"M. c #F4EE33",
"N. c #EEF430",
"B. c #E7F23E",
"V. c #F5F633",
"C. c #F5F933",
"Z. c #FDFC34",
"A. c #F3F43A",
"S. c #F6F93A",
"D. c #FCFB3C",
"F. c #FAF539",
"G. c #BBB543",
"H. c #C1BD40",
"J. c #BAC64A",
"K. c #C8C540",
"L. c #D5D549",
"P. c #DFDA48",
"I. c #D9D349",
"U. c #CACF57",
"Y. c #D9D653",
"T. c #E3E047",
"R. c #E4E148",
"E. c #E9EC45",
"W. c #F2EC40",
"Q. c #F3EE4C",
"!. c #ECF041",
"~. c #E9F643",
"^. c #F4F444",
"/. c #F8F641",
"(. c #F5F946",
"). c #FAFA45",
"_. c #F5F44A",
"`. c #F7FA49",
"'. c #FCF84F",
"]. c #EDEF52",
"[. c #E9E351",
"{. c #EDF057",
"}. c #EEF158",
"|. c #F6F253",
" X c #F8F357",
".X c #F4F25B",
"XX c #F8F955",
/* pixels */
"                                    O O O                                                                                       ",
"                                                                                                                                ",
"                                                                                                                                ",
"                                                                                                                                ",
"                                                  O                       O O                                                   ",
"                                                  O                       O                                                     ",
"                                                                                                  O                             ",
"                                                                X . . . . . . .                                                 ",
"                                                    . .     .   . . . . .                       .                               ",
"                                  O             X     . . . 2 e z b A A Z a 0 2 o . . . .   X     .     O O                     ",
"                                  @ O         .   . * w J u.W.F.V.c.x.l.C.S.A.n.0.V w % . o   +                                 ",
"                                O   O         . > Z L._.z.O.O.} } } } } +.} +.+.6.x._.Y.x ; . . .             O O O             ",
"                                        o   * n v.C.g. .X.$.o.X.$.X.X.X.X.X.$.$.} }  .d./.R.h # .   +     .                     ",
"                                    X o . 8 K./.3.$.} X.%.X.X.X.X.$.$.o.X.X.X.X.%.$.} $.{ 4./.e.5 .   +                         ",
"                                O     . g Q.F.>.O.X.X.$.$.X.$.$.} X.$.X.X.$.$.X.$.X.$.$.*. . .j.B.f .   O           O           ",
"                                  . o C (.,. .O.o.o.X.$.X.X.$.}  . . .O.o.O.O.O.} %.X.} $.$.$.+.#.(.Z #   O         O           ",
"                    O O     O   . . N S. .} X.X.o.=.X.X.X.%.$.} x.F.A.c.O.X.=.O.X.%.$.} $.$.+.$.} 1..XI   + O                   ",
"                    O O   X   o . v ).{ +.$.$.$.X.o.=.$.X.} O.Z.L r q B s.2.| O.o.X.$.} } $.$.$. .M.I.6     O O                 ",
"      O                       . e |.<.-.} } $.X.$.X.X.$.$. .M.F o . . # y ^.7.} %.X.X.%.} $.$.[ F.r., . .                       ",
"      O                       > y.g. .} ;.X.X.X.X.%.} $.} ,.Q.4 o .   . o ^ j.+.} %.%.X.%.*.| ).~ % o .                         ",
"    O O                 . . . T Z.} $.X.X.$.$.X.X.$.$.$.$.<.a.& .   O   o Y c.{ $.X.X.X.$...'.R . o                             ",
"                          . 9 ]. .} %.} X.X.X.$.X.X.} $.$.,.m.6 . o     o _ 4.+.%.X.%.O.,.).Y o .       O                       ",
"                    O     o ! N. .%.} $.%.X.X.%.X.$.X.%.} } Z.P & o . o j A. .$.X.$.} <.XXl o     O         @                   ",
"                    O   . 2 !.@. .} %.X.X.%.X.X.$.} *.} %.$. .V.e.s u E A.5.} $.$. .f._.i .                                     ",
"                    O . . Z C.+.+.$.$.$.X.X.X.X.X.X.X.X.$.$.$.O.g.Z.c.h.2.O.X.$.} 4.{.r . .                                     ",
"                        # H.4.+.+.+.$.$.X.O.O.o.X.X.X.X.X.X.X.$.} } } } %.X.%.} j.b.6 o                                         ",
"                    .   1 .X,.$.+.+.$.$.X.O.O.O.X.X.X.X.X.X.X.X.$.$.$.%.o.%.} g.P.4 . .                                         ",
"                    . . y ).,.o.$.+.$.$.$.$.X.X.X.X.X.X.X.X.X.X.$.X.} $.X. .Z.t., . + O                                         ",
"                      . M l.2.O.O.$.$.$.$.$.$.$.X.X.X.X.X.X.X.X.X.$.$.} +.C.G.& o o     O                                       ",
"                      . G k.O.o.O.O.X.$.$.$.$.$.X.X.X.X.X.X.X.X.$.$.} ,.D.W . .             +                                   ",
"                    O . L 8.O.o.o.X.X.$.$.$.$.$.$.$.$.$.O.O.X.X.X.} *.S.U o o         O   O                                     ",
"                    O . ` *.X.o.X.X.X.$.$.$.$.$.X.$.$.$.O.O.X.X.o.O.5.m o                                                       ",
"                    O . ) 5.O.X.X.$.$.$.$.$.X.O.o.O.$.$.O.O.+.X.o.[ k.g o .           X                                         ",
"                      . L 8.O.o.X.$.X.$.$.$.X.o.o.X.$.$.X.O.+.$.X.9.,.`.r o o     X           O                                 ",
"                      . G k.O.o.X.$.O.O.$.$.X.X.$.$.$.$.$.O.$.$.$.}  .d._.0 .         X   O                                     ",
"                      . M l.O.o.X.X.X.X.X.X.X.X.$.$.$.$.$.O.$.$.} *.=.O.,.b.5 . .   .       X                                   ",
"                    . . t ).,.X.X.$.X.X.$.X.O.O.X.$.$.$.X.X.$.$.*.} } } } g.p.1 .         O                                     ",
"                    .   1 |.,.$.X.X.$.$.$.X.O.O.O.$.X.X.X.X.$.$.+.*.} &.$.} x.i.= o                                             ",
"                        # / f.+.X.X.X.$.$.$.O.O.O.O.O.X.X.X.$.X.} $.} } $.%.] D.( #                                             ",
"                      . . Z S.} O.o.X.X.$.$.$.O.O.O.O.O.X.X.X.X.$.X.*.$.} } $.| D.Q o   .                                       ",
"                    O   . 2 E.4.2.O.=.X.} %.} $.$.$.X.$.X.X.X.X.X.X.O.O.$.$.X.o.| D.D o     .                                   ",
"                        o o H A.| *.} *.%.$.} %.$.$.$.$.$.X.X.X.X.X.O.O.O.$.X.X.$. ./.m . .           O O O O                   ",
"                        . . 7 }.,.} %.} $.} X.$.$.$.$.X.$.$.X.X.X.X.o.o.X.$.$.$.X.} 2.).k #       X     O O O                   ",
"                          o . Y Z.} $.} X.$.$.X.$.$.X.X.X.X.X.X.$.X.X.X.X.$.$.$.$.$.} ,. Xe . o           O O O                 ",
"                          . . = y.7. .} *.} O.X.X.X.X.o.O.O.$.$.$.$.X.X.X.X.$.$.$.X.$.O.,._.q . o         O                     ",
"                              . w _.,.-.} } *.X.X.X.X.o.O.O.$.$.$.$.X.X.X.X.X.X.X.} $.+.$.<.[.6 . .                             ",
"                              # . k /.{ $.$.O.*.X.$.$.X.X.O.$.$.O.$.$.$.X.X.X.X.$.$.:.{ +.{ h.p.<   X                           ",
"                            -   . . N S.,.} O.o.X.$.$.$.X.O.$.$.O.X.$.$.O.o.X.X.$.} +.+.+.$.X.l.U.$                             ",
"                                    . C (.<.2.O.o.X.X.X.X.O.$.} *.O.X.$.o.O.X.$.X.%.$.} $.$.$.{ ~.J.. .                         ",
"                                O   . o i ].A.| O.X.%.%.%.X.X.} } X.X.X.X.o.$.X.$.} X.%.*. . .f.~.d                             ",
"                                      % . 6 w.).3.$.} X.$.X.X.=.X.$.$.X.X.$.X.X.%.X.} $.{ 4./.w.3 .   O     .                   ",
"                                        .   o j v.C.g.,.} X.X.X.$.X.X.X.X.$.$.$.} {  .<./.T.h # . .           O                 ",
"                                            o . = c L._.x.5.*.$.} } } } +.+.+.+.6.x.!.Y.x ; . . .         .                     ",
"                                O             . . . * w V q.n.A.V.Z.c.x.V.S.A.n.' V w % . .   +     X                           ",
"                                  +         X         . . . 1 w a v S S c p 8 1 o o . . .               O                       ",
"                                    +                       .   . . . . . .                             O O                     ",
"                                                                . . . . . . . .                                                 ",
"                                                                                                                                ",
"                                                O O                                                                 O O       O ",
"                                                O O O                       O                                                   ",
"                                                                                                                                ",
"                                                                                                                                ",
"                                                                                                                                ",
"                                    O O O O                                                                                     "
};
