/* XPM */
static char * collectible0_xpm[] = {
"64 64 10 1",
" 	c #0D2B45",
".	c #203C56",
"+	c #544E68",
"@	c #8D697A",
"#	c #000000",
"$	c #001835",
"%	c #80B9FF",
"&	c #001938",
"*	c #003B82",
"=	c #0F7CFF",
"                                           .                    ",
"                                         ....                   ",
"                 ... ..        ....  ...  . ..           ...+  .",
"                       . .                                  .+  ",
" .++.. .   .+@@@  .+@@@@@@@@@@.@+..+@@..@@@@@. .@@@@@@+++..  .  ",
" @@@@@@@@@@@@@@@@@@@@@@@@+@@@@+@@@@@@@@@@@@@@@@@@+@@@@@@@@@. .  ",
" @@@@@@++@+@@@+@@@@@+++@+++++++++++@@@++@@@@@+@@@++++@@@@@@. .  ",
".@++++++++++++++@++++++.++++++++++++++++++++++++++++++++++@+ .  ",
".+++++++++++++++++++++++++++++++++++++++++++++++++++++++++@+ .  ",
"+@++++++++++++++++++++++++++++++++++++++++++++++++++++.+++@@ .  ",
"+@++++++++++++++++++++++++++++++++.+++++++++++++++++++..+++@  . ",
"@@++++++++++++++++++++++++++++##++@++++++++++++++++++++.++@@    ",
"@+++++++++++++++++++++....+++#$%#+++++++++++++++  +++++++++@    ",
"@++++++++++++++++++++++.  .++#$%#++++++++++++++. .++++++++++ .  ",
"@@+++++++++++++++++++.+.@@..#&$%%#++++++++++++. +++++++++++@ .  ",
"+@+++++++++++++++++++@++.++.#&$%%#+++++  +++++@@++++++++++@@ .  ",
"@@+++++++++++++++++++++++++#*&$%%%#+++..+++++++++++.++++++@@ .  ",
"@@+++++++++++++++++++++++++#*&$%%%#+++++++++++++++++.+++++@@ .  ",
"@@++++++++++++++++++++++++#**&$%%%%#+++++++++++++++++++.++@@    ",
"@..+..++...+...+++++...+++#**&$%*%%#.+++...+......+.......@@ .  ",
"................+........#***&$%**%%#.......+..............@    ",
"  ........ ........   ...#***&$%**%%#     ..... ..........      ",
"                .       #****&$%***%%#                       .  ",
"     .                  #*=**&$%***%%#               .     ...  ",
"    .     ....    ..  .#**=**&$%***%%%#+.. .    ... .     ...+  ",
"                       #*==**&$%****%%#    .          .....     ",
"@@. .@.     .@@@ @@@@@#**===*&$%****%%%#@@@@@@@@..   .@@@@@@@@@@",
"@@@@@@@@@@@@@@@@@@@.@@#**===*&$%***%%%%#@@+@@@@@@@@@@@@@@@@@@@@@",
"@@@+@@@@@@@@@@@@@@@++#*=*===*&$%***%%%%%#++@@+@@@++++@@@+++++++@",
"+++++++++++++++++++++#*=====*&$%***%%%%%#+++++++++++++++++++++++",
"++++++++++++++++++++#**=====*&$%**%%%%%%%#++++++++++++++++++++++",
"++++++++++++++++++++#***====*&&%**%%%%%%%#+++++++++++++++. +++++",
"+++++++++++++++++++#****====*&&%**%%%%%%%%#+++++++++++++.@.+++++",
"+++++++++++++++++++#*******&&&$%%*****%%%%#+++++++++++++++++++++",
"+++++++++++++++++++#====*******%*&&&&*&***&+++++++++++++++++++++",
"+++++++++++++++++++#===********%*&&&&&*&**#. +++++++++++++++++++",
"+++++++++++++++++++#==**=******%*&&&&&**&*#+. ++++++++++++++++++",
"++++++++++++++++++++#=*=******$%*&&&&&&*&#+++.   +++++++++++++++",
"++++++++++++++++++++#**=******$%*&&&&&&**#++++..+++++++++++..+++",
"+++++++++++++++++++++#*******=$%*&**&&&&#+++++++++++++++++++++++",
"++....+++..+++.++++++#******==$%*&**&&&&#.+++++.......++++++++++",
"..................+...#*****==$%*&**&&&#.+................++....",
".   . ................#****===$%*&***&&#... ....  . ............",
"                      #****===$%*&***&&#                        ",
"                       #**====$%*&***&#                         ",
"         ..         ...#**====$%*&***&#..+ .+   ..  ...  .....  ",
"                      ..#*====$%*&***#      ..       ...        ",
"@@@@..        .@@@@@@@@@#=====$%*&***#@@@.  +.  .+@@@@@@@@@@@. .",
"@@@@@@. .@@@@@@@@@@@@@@@@#====$%*&**#@@@@@.  . .+@@@@@+@@@+@@@.@",
"@@+++@@@@@++@+@@@@@@++++@#====$%*&**#@+@@@@ +  +@+@@++++++++++++",
"++++++++++++++++++++@+++++#===$%***#+++++@+ +  +@+++++++++++++++",
"++++++++++++++++++++++++++#===$%***#++++++@    @++++++++++++++++",
"+++++++++++++. +++++++ ++++#==$%**#+++++++@ .  @++++++++++++. ++",
"+++++++++++. .++++++. +++++#==$%**#++++++@@ .  @++++++++++++..++",
"++++++++++..++++++. .+++++@@#=$%*#+++++++@@ .  @@+++++++++++++++",
"+++++++++++++++++.+++++++++@#=$%*#++++++++@    @@+++++++..++++++",
"+++++++++++++++++++++++++++++#*%#++++++++@@ +  +@+++++++@+++++++",
"++++++++++++++++++++++++++++++##++++++++++@ .  @@+++++++++++++++",
"++++++++++++++++++++++++++++++++++++++++++@ .  @++++++++++++++++",
"+++++++++++++++++++++++++++++++++++++++++@@ .  @@+++++++++++++++",
"+++++++++++++++++++++++++++++++++++++..++@@    @@++.++++++++++++",
"...++++++....++++++..+...++++++++++.......@    @....+++@@@@@+++.",
"+....+....................+......+........  .  ...............++",
".........        .... ...................  ..      .....  ......"};
