/* XPM */
static char * E_exit_closed_xpm[] = {
"64 64 91 1",
" 	c #0D2B45",
".	c #203C56",
"+	c #544E68",
"@	c #8D697A",
"#	c #5540B1",
"$	c #4A4089",
"%	c #5615F6",
"&	c #1E247B",
"*	c #5411F6",
"=	c #331AB0",
"-	c #5B1CF6",
";	c #932FF9",
">	c #9431F9",
",	c #5815F9",
"'	c #351AB3",
")	c #922FF6",
"!	c #5611F9",
"~	c #9533F5",
"{	c #530EF5",
"]	c #9331F6",
"^	c #9431F6",
"/	c #3F30A0",
"(	c #2F17B0",
"_	c #4F32B0",
":	c #442FB0",
"<	c #371BB3",
"[	c #341CB0",
"}	c #5717F6",
"|	c #41349B",
"1	c #351EAE",
"2	c #3117B3",
"3	c #4D34BA",
"4	c #2F19AE",
"5	c #3425AD",
"6	c #4128AD",
"7	c #3318B3",
"8	c #5413F6",
"9	c #2B259D",
"0	c #932FF6",
"a	c #263281",
"b	c #3114B2",
"c	c #243770",
"d	c #3623A7",
"e	c #281D9B",
"f	c #5F2CA7",
"g	c #261F94",
"h	c #540FF6",
"i	c #2F14B0",
"j	c #2E16AD",
"k	c #3F20AB",
"l	c #182767",
"m	c #550EF8",
"n	c #311CAB",
"o	c #3B31AB",
"p	c #2A2997",
"q	c #5410F4",
"r	c #23218A",
"s	c #4126AF",
"t	c #3D20B4",
"u	c #5C40A4",
"v	c #603FB3",
"w	c #815F88",
"x	c #6238AB",
"y	c #7E56B7",
"z	c #6446A0",
"A	c #3B20B1",
"B	c #775692",
"C	c #925AB7",
"D	c #4F477B",
"E	c #5C1CF9",
"F	c #7345B1",
"G	c #4015CC",
"H	c #453994",
"I	c #5B16F9",
"J	c #2E15AE",
"K	c #9732F9",
"L	c #2F18AF",
"M	c #932EF8",
"N	c #580FF8",
"O	c #292D8F",
"P	c #6C4D9A",
"Q	c #9330F5",
"R	c #5414F5",
"S	c #3215B2",
"T	c #560DFB",
"U	c #5912F9",
"V	c #3E23B0",
"W	c #5F23F6",
"X	c #3E21B4",
"Y	c #5D1FF7",
"Z	c #581AF5",
"                                           .                    ",
"                                         ....                   ",
"                 ... ..        ....  ...  . ..           ...+  .",
"                       . .                                  .+  ",
" .++.. .   .+@@@  .+@@@@@@@@@@.@+..+@@..@@@@@. .@@@@@@+++..  .  ",
" @@@@@@@@@@@@@@@@@@@@@@@@+@@@@+@@@@@@@@@@@@@@@@@@+@@@@@@@@@. .  ",
" @@@@@@++@+@@@+@@@@@+++@+++++++++++@@@++@@@@@+@@@++++@@@@@@. .  ",
".@++++++++++++++@++++++.++++++++++++++++++++++++++++++++++@+ .  ",
".+++++++++++++++++++++++++++++++#+++++++++++++++++++++++++@+ .  ",
"+@+++++++++++++++++++++++++++++###++++++++++++++++++++.+++@@ .  ",
"+@++++++++++++++++++++++++++++++#+.+++++++++++++++++++..+++@  . ",
"@@++++++++++++++++++++++++++++++#+@++++++++++++++++++++.++@@    ",
"@+++++++++++++++++++++....+$$$%%%%%$%$++++++++++  +++++++++@    ",
"@++++++++++++++++++++++.&&*%%%=%%=%=%=%$$++++++. .++++++++++ .  ",
"@@+++++++++++++++++++.+*--*;%%>,=,',%%=%%$++++. ##+++++++++@ .  ",
"+@+++++++++++++++++++@$%)%%!%%,~>~,='=%{{$$+++@@##++++++++@@ .  ",
"@@+++++++++++++++++++%%%%%,'',',]^^=%/(('%%%+++##++.++++++@@ .  ",
"@@+++++++++++++++##+===,=',_:_<=%[}%%/|===%%%+++++++.+++++@@ .  ",
"@@+++++++++++++++##%%%%=1<==''2<'<[%]%///===%3+++++++++.++@@    ",
"@..+..++...+...+++==*(4'_/==55567'<}8}//9(('((*...+.......@@ .  ",
"................+.(!(47222999959555'}80(99((=(*............@    ",
"  ........ ......a*{bb((5a9ca9aadef67ghiee9(2(*&..........      ",
"                .{ijbiiie&e&eegg&&dkkgihlegiiim{             .  ",
"     .          {ibjbien&ee&lll  l&nkgjhgeeieei{&    .     ...  ",
"    .     ....  ii((inoa9pac cl  .l&nfd|89g9eni{a.. .     ...+  ",
"                {qibneeerl    ++  l&dfd lg 9eeb{&     .....     ",
"@@. .@.     .@@-{stuvuuuww@@. .+  +.adxy@wzuuuA-!a   .@@@@@@@@@@",
"@@@@@@@@@@@@@@@-Asu9vBuwww@@@  .  .@@Cywww$uuuuA-B@@@@@@@@@@@@@@",
"@@@+@@@@@@@@@@@AAAu//BBw@w@@@  + l@@yyCw@D+uu/u-E$+++@@@+++++++@",
"+++++++++++++++='=/:/]D|D++Dw.l.  @++#F++|+||//%]$++++++++++++++",
"++++++++++##+++G=1::$^DD#FFFC@    @#+F+l+D+D|='=,$++++++++++++++",
"+++++++++#++##+==///]^[#F####C .  @FF++c++|D//==,$++++++#. +++++",
"++++++++++#++++==:/>]=FF#F#+Dyf.  CF#++++++|/|[=>##+#+##oy.+++++",
"+++++++++++++++=/:%]'<F#+D++@@    @@+++++DHD|[[,I$++++++#+++++++",
"+++++++++++++++=:/,=<_:#DD++@@    @@+++++HH|H/=]>#++++++++++++++",
"+++++++++++++++==:]'<:##D+D++@    +@+++|+|Dpe'=%,#++++++++++++++",
"+++++++++++++++='/><_|#+D++D+@   f+@D++|+HH|pJ%K,$++++++++++++++",
"+++++++++++++++%/%><::D+$+DD@@  .f@@D+++HDH|[LMNm#++++++++++++++",
"+++++++++++++++%%,'<':DHDD++@@  df@@++.HH|[[[%*7,#+++++++++..+++",
"++++++++++++++++%'><'pp//D++@@   fy@+HHOH|}}%]},=+++++++++++++++",
"++....+++..+++.+%,<'':|9cc.@w. . dCOOOO444^]>%[*o.....++++++++++",
"................**'72L59pc..P  . nfQQ44QQ^882L7*o.........++....",
".   . ...........*;622(9c9l   l rnm04qq48R4b!!(a  . ............",
"                 {mNnibigl  r.r   dSdbjjJbbNmN{&                ",
"                  m{SbiigggrOc.r rndkkrjnbS{bm{             d   ",
"  d      ..       TMU2(beggOppp.Orp55O657Im!,i& ..  ...  .....d ",
"d                  {{N;((LggrrOOrrrnOnSimm{i(a       ...       d",
"@@@@..        .@@@@@-EE-AAVVVPzVzszVttt-W*bi$.  .+@@@@@@@@@@@. .",
"@@@@@@. .@@@@@@@@@@@@EEXE-AAV1Y[sV[VYYYEAA(& . .+@@@@@+@@@+@@@.@",
"@@+++@@@@@++@+@@@@@@++%%-'%=%}}Z}}}%%A=A--B +  +@+@@++++++++++++",
"+++++++++++++#++++++@++%,I'%='%%===//===%B+ +  +@+++++++++++++++",
"++++++++++++++++++++++++%=%<,%=,%%%%%%,%3+@    @++++++++++++++++",
"+++++++++++#+. +++++++ ++++,'',=''==%$++++@ .  @++++++++++++. ++",
"++++++++++#. .++++++. +++++++++++++++++++@@ .  @++++++++++++..++",
"+++++++++#..++++++. .+++++@@@@@++++++++++@@ .  @@+++++++++++++++",
"+++++++##++++++++.+++++++++@++++++++++++++@    @@+++++++..++++++",
"++++++###++++++++++++++++++++++++++++++++@@ +  +@+++++++@+++++++",
"+++++++#++++++++++++++++++++++++++++++++++@ .  @@+++++++++++++++",
"++++++++++++++++++++++++++++++++++++++++++@d.  @++++++++++++++++",
"+++++++++++++++++++++++++++++++++++++++++@@ .  @@+++++++++++++++",
"+++++++++++++++++++++++++++++++++++++..++@@ d  @@++.++++++++++++",
"...++++++....++++++..+...++++++++++.......@    @....+++@@@@@+++.",
"+....+....................+......+........  .dd...............++",
".........        .... ...................  ..dd    .....  ......"};
