/* XPM */
static char * grass_xpm[] = {
"64 64 4 1",
" 	c #0D2B45",
".	c #203C56",
"+	c #544E68",
"@	c #8D697A",
"                                           .                    ",
"                                         ....                   ",
"                 ... ..        ....  ...  . ..           ...+  .",
"                       . .                                  .+  ",
" .++.. .   .+@@@  .+@@@@@@@@@@.@+..+@@..@@@@@. .@@@@@@+++..  .  ",
" @@@@@@@@@@@@@@@@@@@@@@@@+@@@@+@@@@@@@@@@@@@@@@@@+@@@@@@@@@. .  ",
" @@@@@@++@+@@@+@@@@@+++@+++++++++++@@@++@@@@@+@@@++++@@@@@@. .  ",
".@++++++++++++++@++++++.++++++++++++++++++++++++++++++++++@+ .  ",
".+++++++++++++++++++++++++++++++++++++++++++++++++++++++++@+ .  ",
"+@++++++++++++++++++++++++++++++++++++++++++++++++++++.+++@@ .  ",
"+@++++++++++++++++++++++++++++++++.+++++++++++++++++++..+++@  . ",
"@@++++++++++++++++++++++++++++++++@++++++++++++++++++++.++@@    ",
"@+++++++++++++++++++++....++++++++++++++++++++++  +++++++++@    ",
"@++++++++++++++++++++++.  .++++++++++++++++++++. .++++++++++ .  ",
"@@+++++++++++++++++++.+.@@..++++++++++++++++++. +++++++++++@ .  ",
"+@+++++++++++++++++++@++.++.+++++++++++  +++++@@++++++++++@@ .  ",
"@@++++++++++++++++++++++++++++++++++++..+++++++++++.++++++@@ .  ",
"@@++++++++++++++++++++++++++++++++++++++++++++++++++.+++++@@ .  ",
"@@++++++++++++++++++++++++++++.++++++++++++++++++++++++.++@@    ",
"@..+..++...+...+++++...+++++.....+++.+++...+......+.......@@ .  ",
"................+..................++.......+..............@    ",
"  ........ ........   ..........   ..     ..... ..........      ",
"                .                                            .  ",
"     .                                               .     ...  ",
"    .     ....    ..  ...... .   .     +.. .    ... .     ...+  ",
"                              ++           .          .....     ",
"@@. .@.     .@@@ @@@@@@@@@@@. .+  +.. .@@@@@@@@@..   .@@@@@@@@@@",
"@@@@@@@@@@@@@@@@@@@.@@@@@@@@@  .  .@@@@@@@+@@@@@@@@@@@@@@@@@@@@@",
"@@@+@@@@@@@@@@@@@@@++@@@@@@@@  +  @@@@@@@++@@+@@@++++@@@+++++++@",
"++++++++++++++++++++++++++++@. .  @+++++++++++++++++++++++++++++",
"++++++++++++++++++++++++++++@@    @++++ ++++++++++++++++++++++++",
"+++++++++++++++++++++++++++++@ .  @++++.+++++++++++++++++. +++++",
"+++++++++++++++++++++++++++++@ .  @+++++++++++++++++++++.@.+++++",
"++++++++++++++++++++++++++++@@    @@++++++++++++++++++++++++++++",
"++++++++++++++++++++++++++++@@    @@++++++++++++++++++++++++++++",
"+++++++++++++++++++++++++++++@    +@+++++++. +++++++++++++++++++",
"+++++++++++++++++++++++++++++@    +@++++++++. ++++++++++++++++++",
"++++++++++++++++++++++++++++@@  . @@+++++++++.   +++++++++++++++",
"++++++++++++++++++++++++++++@@    @@++.+++++++..+++++++++++..+++",
"+++++++++++++++++++++..+++++@@    @@+++.++++++++++++++++++++++++",
"++....+++..+++.++++++++....@@. .  @.......+++++.......++++++++++",
"..................+.........@  .   ......+................++....",
".   . ....................         ..  .... ....  . ............",
"                             .                                  ",
"                            ...                                 ",
"         ..         ...    ...... .......+ .+   ..  ...  .....  ",
"                      ....    ..    .       ..       ...        ",
"@@@@..        .@@@@@@@@@@@@@@@@@@@@@@@@@@.  +.  .+@@@@@@@@@@@. .",
"@@@@@@. .@@@@@@@@@@@@@@@@@@@@+@+@@+@@@@@@@.  . .+@@@@@+@@@+@@@.@",
"@@+++@@@@@++@+@@@@@@++++@++++++++++++@+@@@@ +  +@+@@++++++++++++",
"++++++++++++++++++++@++++++++++++++++++++@+ +  +@+++++++++++++++",
"++++++++++++++++++++++++++++++++++++++++++@    @++++++++++++++++",
"+++++++++++++. +++++++ +++++++++++++++++++@ .  @++++++++++++. ++",
"+++++++++++. .++++++. +++++++++++++++++++@@ .  @++++++++++++..++",
"++++++++++..++++++. .+++++@@@@@++++++++++@@ .  @@+++++++++++++++",
"+++++++++++++++++.+++++++++@++++++++++++++@    @@+++++++..++++++",
"+++++++++++++++++++++++++++++++++++++++++@@ +  +@+++++++@+++++++",
"++++++++++++++++++++++++++++++++++++++++++@ .  @@+++++++++++++++",
"++++++++++++++++++++++++++++++++++++++++++@ .  @++++++++++++++++",
"+++++++++++++++++++++++++++++++++++++++++@@ .  @@+++++++++++++++",
"+++++++++++++++++++++++++++++++++++++..++@@    @@++.++++++++++++",
"...++++++....++++++..+...++++++++++.......@    @....+++@@@@@+++.",
"+....+....................+......+........  .  ...............++",
".........        .... ...................  ..      .....  ......"};
