/* XPM */
static char * hero2_xpm[] = {
"64 64 72 1",
" 	c #0D2B45",
".	c #203C56",
"+	c #544E68",
"@	c #8D697A",
"#	c #1F0206",
"$	c #45090F",
"%	c #641318",
"&	c #831E20",
"*	c #A12929",
"=	c #FDD5B7",
"-	c #281820",
";	c #9E3E37",
">	c #EAA377",
",	c #FBECE6",
"'	c #D28560",
")	c #50D4EC",
"!	c #F2F8F9",
"~	c #5187B3",
"{	c #293D4B",
"]	c #070007",
"^	c #311210",
"/	c #756962",
"(	c #352E36",
"_	c #4B2B13",
":	c #595050",
"<	c #7E767E",
"[	c #9C9191",
"}	c #75502D",
"|	c #8D8789",
"1	c #756E76",
"2	c #B6AAA4",
"3	c #9A6F37",
"4	c #463E47",
"5	c #706970",
"6	c #8F8484",
"7	c #7F797F",
"8	c #7B7575",
"9	c #877B75",
"0	c #231B24",
"a	c #665D66",
"b	c #4A444B",
"c	c #3B343B",
"d	c #3E3333",
"e	c #332C35",
"f	c #584C46",
"g	c #686169",
"h	c #A99D97",
"i	c #585058",
"j	c #2E282E",
"k	c #6D6262",
"l	c #AA8550",
"m	c #4F464F",
"n	c #411E05",
"o	c #5C575D",
"p	c #1D131E",
"q	c #4A5057",
"r	c #171018",
"s	c #B0A9AA",
"t	c #31313E",
"u	c #A8C4B1",
"v	c #2E2533",
"w	c #726B7E",
"x	c #5C565D",
"y	c #8D8787",
"z	c #6C6262",
"A	c #352D36",
"B	c #400B0B",
"C	c #3D2923",
"D	c #221814",
"E	c #57352F",
"F	c #83534E",
"G	c #94605A",
"                                           .                    ",
"                                         ....                   ",
"                 ... ..        ....  ...  . ..           ...+  .",
"                       . .                                  .+  ",
" .++.. .   .+@@@  .+@@@@@@@@@@.@+..+@@..@@@@@. .@@@@@@+++..  .  ",
" @@@@@@@@@@@@@@@@@@@@@@@@+@@@@+@@@@@@@@@@@@@@@@@@+@@@@@@@@@. .  ",
" @@@@@@++@+@@@+@@@@@+++@+++++++++++@@#++@@@@@+@@@++++@@@@@@. .  ",
".@++++++++++++++@++++++.++###++++++++$#+++++++++++++++++++@+ .  ",
".++++++++++++++++++++++++#$%$$##+++##%#+++++++++++++++++++@+ .  ",
"+@++++++++++++++++++++++++#%%%$$###$$%&#++++++++++++++.+++@@ .  ",
"+@++++++++++++++++++++++###$&%%$$#$%&%%&#+++++++++++++..+++@  . ",
"@@++++++++++++++++++++##$%%&%&%%%$$&&%&&%#$$+++++++++++.++@@    ",
"@++++++++++++++++++++#$%&***&*&%&%$%&&&%$%&$++++  +++++++++@    ",
"@+++++++++++++++++++++#$$$$%%*%&*&%*&*&&**%#+++. .++++++++++ .  ",
"@@+++++++++++++++++++.+#$%&***&***&**&***&#+++. +++++++++++@ .  ",
"+@+++++++++++++++++++@#%%&****&***$&**%**%#+++@@++++++++++@@ .  ",
"@@+++++++++++++++++++#$%&***%&%**&$%**%**&#++++++++.++++++@@ .  ",
"@@++++++++++++++++++#$%#**&%&%$**&#$&*&$&*%#++++++++.+++++@@ .  ",
"@@++++++++++++++++++#$#*&%%&%#$&*%##%&*#$&&#+++++++++++.++@@    ",
"@..+..++...+...+++++.#&%$%$%#=#%&#==#%*&#$&$......+.......@@ .  ",
"................+....#%$#$%#===#%#===#%&##%&#..............@    ",
"  ........ ........ #%###%#====#$=====#%#-#%$.. ..........      ",
"                .  #$#;#$#======#=====>##;-$%                .  ",
"     .             ##-#$#>=,,======,,>>>#=-#$        .     ...  ",
"    .     ....    .. -=#>>';;>====>;;'>'>=-.#   ... .     ...+  ",
"                     -=='>)--)>==>)--)>'==-.          .....     ",
"@@. .@.     .@@@ @@@@@-='>!-~!====!~-!>'=-@@@@@@..   .@@@@@@@@@@",
"@@@@@@@@@@@@@@@@@@@.@@@-->={{!====!{{=>--@+@@@@@@@@@@@@@@@@@@@@@",
"@@@+@@@@@@@@@@@@@@@++]]^-'============'-^++@@+@@@++++@@@+++++++@",
"++++++++++++++++++++]/(^_;>==========>;_^+++++++++++++++++++++++",
"+++++++++++++++++++]:<[^}^;;>======>;;^}^]]+++++++++++++++++++++",
"+++++++++++++++++++]|12^}3^^;;;;;;;;^^3}^4/]+++++++++++++. +++++",
"++++++++++++++++++]:567^}33}^^^^^^^^}33}^[7:]+++++++++++.@.+++++",
"++++++++++++++++++]8490^}333}}}}}}}}333}^2a|]+++++++++++++++++++",
"++++++++++++++++++]b:cd^}33333333333333}^<[7:]++++++++++++++++++",
"+++++++++++++++++]/(8ef^}33333333333333}^ghi8]++++++++++++++++++",
"+++++++++++++++++]jkc]]^}}3l33333333l3}}^kmkc]++++++++++++++++++",
"+++++++++++++++++]]]];-^_}}3l333333l3}}_^/4|4]   +++++++++++++++",
"+++++++++++++++++->>>';^n__}3llllll3}__n^ckok]..+++++++++++..+++",
"+++++++++++++++++->>>>;^pqq__}}}}}}__qqp^r9sg]++++++++++++++++++",
"++....+++..+++.++-'>>>'^ptttqquuuuqqtttp^di7[]+.......++++++++++",
".................-;>>;;^ppttttuvvutttppp^]]]]]............++....",
".   . ............-'==;^__ppppwwwwpppp^^->=,=-..  . ............",
"                   ----^^^^^^}_n^nnnnn_-;===>-                  ",
"                       ]ckokx^}^^}}}}__->=,=>-                  ",
"         ..         ...]e9(|(y^^^}}}__^-=;=='-  ..  ...  .....  ",
"                      .]:mk7kxzm^^^^^^:-;;==;-       ...        ",
"@@@@..        .@@@@@@@@]84hi|Ay49Aye/]]->=='-.  .+@@@@@@@@@@@. .",
"@@@@@@. .@@@@@@@@@@@@@@B]c67kxzmko-----C---- . .+@@@@@+@@@+@@@.@",
"@@+++@@@@@++@+@@@@@@++++B]]]]]]]]--DEEED-@@ +  +@+@@++++++++++++",
"++++++++++++++++++++@+++------+++-DEFFFE-@+ +  +@+++++++++++++++",
"+++++++++++++++++++++++-CDEEC-+++-EFFFFFD-@    @++++++++++++++++",
"+++++++++++++. +++++++ -DDEEE-+++-EFFFFFF-@ .  @++++++++++++. ++",
"+++++++++++. .++++++. -CEFFFEC-+++-FGGGFE-@ .  @++++++++++++..++",
"++++++++++..++++++. .+-DEFFFFD-++++------@@ .  @@+++++++++++++++",
"+++++++++++++++++.++++-EFGGGFD-+++++++++++@    @@+++++++..++++++",
"++++++++++++++++++++++-DDDDDDD-++++++++++@@ +  +@+++++++@+++++++",
"+++++++++++++++++++++++-------++++++++++++@ .  @@+++++++++++++++",
"++++++++++++++++++++++++++++++++++++++++++@ .  @++++++++++++++++",
"+++++++++++++++++++++++++++++++++++++++++@@ .  @@+++++++++++++++",
"+++++++++++++++++++++++++++++++++++++..++@@    @@++.++++++++++++",
"...++++++....++++++..+...++++++++++.......@    @....+++@@@@@+++.",
"+....+....................+......+........  .  ...............++",
".........        .... ...................  ..      .....  ......"};
