/* XPM */
static char * wall_xpm[] = {
"64 64 7 1",
" 	c #203C56",
".	c #D08159",
"+	c #8D697A",
"@	c #544E68",
"#	c #0D2B45",
"$	c #06131F",
"%	c #FFAA5E",
" .+++++++++@ # @#$ ##$#@@@@@@@@@@@@@@@@@++++++++++++++++++++++. ",
"@+...++++++++## #$#@@@@@@@ @@@@@@@@@@@@@++++++++++++++++++++++. ",
"@++++..+++++ ##@#$@@@             @@@@@@+++++++++++++++++++...+@",
"@.+++++.@@@@  # ##@                 @@@@+++@+@@@@@+++++++..++++@",
"@.+++++.@@@@  ####@                 @@@@@@@@@@@@@@@@@@@@.+++++.@",
"@.+++++@@@@@@ # ##@                     @@@@@@@@@@@@@@@@.+++++.@",
"@++++++.@@+ @ # ##@            # @     @@@@@@@ @@@@@@@@@@++++@.@",
"@++++++.@+#@  ####@@         @@         @@@@@@@@@ @@@@@@.+++@++@",
"@.+++++.@@@@  ####@@       @ #+@       @@@@@@@@@ +@@@@@@.++@.++@",
"@.+++++.@@@@@ #### @          @+        @@@@@@@@+@@@@@@@.++@++.@",
"@.+++++++@@@@ #### @                      @@@@@@@@@@@@@@.+@.++.@",
"@.++++++@@@@  ## #@@                       @@@@@@@@@@@@+++.+++.@",
"@.+++++.@@@@  ####@@  #                   @@@@@@@@@@@@@@++++++.@",
"@++++++.@@@@@ ####@@   #               @@@ ++@@@@@@@@@@@.+++++.@",
"@+++@.@++  ++ # ##@#######               @@@@@@@@@@@@@@@.++++++@",
"@+.@++++++++@## ##$###### ####    #       @@@@@@+++++++++@.@+++@",
"          ########$##$$####$####    @@@@@@@@++++++++++++++++@.+@",
"#         ### ####$$$$$$$$$$$$# ########                        ",
"$##      ###   ###$$$$$$$##$$$$$$$$$$$$$$$##########           #",
"$##  $$   #      ##$$$$$# ##$$$$$$$$$$$$$$$$$##########      ##$",
"      ########  ##$$$$$$$$$##$$$$$$$$$$$#$$##########    $$  ##$",
" .++++++++++++++++@@@@@@@#$$#$$$$$$$$$$$##################      ",
"++....++++#++@+@++ @@@@@@@#$#$$$$@@@@@@@++++++++++++++++++++++. ",
".+++++..@@@@@@@@@@   @  @@@$ $$$@@@@@@@@@@@@+++@@+++++++++....++",
"++++++++@@@@@@@@@@@@@@@     #$$@@@@@   @@+++@@@@@@@+++++..+++++.",
"..++++++@@@@@@@@@@@@@@@@@   $$$@@ ++    @@@@@@@@@@@@@@@@++++++++",
"..++++++@@@@@@@@@@@@@@@@@  $$$$@@ @@@@@@@@@@@@@@@@@@@@@@++++++..",
"..+++++.@@@@@@@@@@@@ @@@@  $$$$@@ @@@@@@@@@@@@@+  @@@@@@++++@+..",
"..+++++.@@@@@@@@@@@@@@@@@@ $$$$@@ @@@@@@@@@@@@@@@@@@@@@@.++@.+..",
"..+++++.@@@@@+ @@@@@@@@@@@ $$$#@@ @@ @@@@@@@@@@@@@@@@@@@.++.++..",
".+++++++@@@@@+ @@@@@@@@@@@ $$$ @@   @ @@ @ @@@@@@@@@@@@@.++.++..",
".+++++++@@@@@@@@@@@@@@@@@@ $$$$@@ @      +@@@@@@@@@@@@@@+++++++.",
".++++++%@@@@@@@@@@@@@@@@@@ $$$$@@          @@@@@@@@@@@@@+++++++.",
"..++++++@@@@@@@@@@@@@@@@@  $$$$@@ @           @@@@@@@@@@%++++++.",
"..+++++. @@@@@@@@@@@@@@  @ $$$$@@  ++++  @@  @@@@@@@@@@@++++++..",
".++++.@@@ @@@@@@@@@#######@$$$$@@        @@@   @@@@@    .++.++..",
".+ .@ ++++@@@   ## #######$$#$$##   ####        @@@@++++@@.++++.",
" +++ ++++++++@@@  #######$$$##$#########      @@@@@+++++++ @. +.",
"      #############$$$$$$$$##$$$###     @@@@@@@@@@+++++++++++ + ",
"$ $   #########$$$$$##########$$$$$$$$$$$$$$$$############      ",
"$$ $ #$$######$### $$# $$$$$$$$$$$$$$$$$$$$$##############   $ $",
"     ##############$$$$$$$$$$$$$$$$$$$$$#$$$###$$$$#####$$# $ $$",
" .++++++++++++ +@   @@##@@@@@#$$$$$$$$$$####$##############     ",
"@+....++++++++@++++@@@@@@@@@@@@@@@@@@@@@@####$  ++++++++++++++. ",
"@+++++.+++@@@@@@@@@@@@  @@@@@ @@@@@@@@@@+++##$  ++++++++++....+@",
"@.+++++@@@@@@@@@              @@@@@@@@@+++++#$  +++++++++.+++++@",
"@.+++++@@@@@@@@@@@                       @.+#$  ++++@@@@@+++++.@",
"@.++++.@@@@@@@@@@@@@                     @.+#$  ++@@@@@@@+++++.@",
"@.++++.@@@@@@@@@@@@@@         # # #      @++#$  ++@@@@@@@.++++.@",
"@.+++++@@@@@@@@@@@@           @#@#       @++##$ ++@@ @@@@.++++.@",
"@.++++ @@@@@@@@@@@@@           @# #      @++##  ++@@+@@@@+++++.@",
"@+++++ @@@ @@@@@@@@@                     @++##  ++@@@@@@@ ++++.@",
"@++++++@@@@  @@@@@@  @#####              @++#$  ++@@@@@+@  @+++@",
"@+++++.@@@@@@@@@@@@@@ @@@@@             @@++#$  ++@@@@@@@+..+++@",
"@+++++.@@@@@@@@@@@@@@                   @@++#$ @@@@@@@@@@.+++++@",
"@.+++++@@@@@@@@@@@@@@@@@                @@++#$ .@@@.@@@@@.+++++@",
"@++++@+@@@@@@@@@@@@@@@@          #       @++#$  ...+@@@@@+++++.@",
"@+++++    @@    #   #   ### ##  ##      @@.+##  ++@@@@@@@+@++++@",
" .+. ++++++++@@@@@@@ ####### # ########## @@#$ @          +++++@",
"  +++++++++++++@@@@@@$$$$$##############  @@###++@@@++++    .+. ",
"$###############$$$$$$$$$$$$$$#########   @###$#@@@++++++++++   ",
"$$$$$$#########$$$$$$$$$$$$$$$$$$$$$$$#######$##################",
"$$$$#$$$$$$$$$$$$$$$$$$$$$$$$$$$$$$$$$$$###$$$#######$##########",
"########$$$$$$$$$$$$$$$$$$$$$$$$$$$$$$$$$#$$$#######$#####$$$$##"};
